<?xml version="1.0" encoding="utf-8"?>
<!-- Generator: Adobe Illustrator 16.0.4, SVG Export Plug-In . SVG Version: 6.00 Build 0)  -->
<!DOCTYPE svg PUBLIC "-//W3C//DTD SVG 1.1//EN" "http://www.w3.org/Graphics/SVG/1.1/DTD/svg11.dtd">
<svg version="1.1"
	 id="Layer_1" xmlns:cc="http://creativecommons.org/ns#" xmlns:dc="http://purl.org/dc/elements/1.1/" xmlns:rdf="http://www.w3.org/1999/02/22-rdf-syntax-ns#"
	 xmlns="http://www.w3.org/2000/svg" xmlns:xlink="http://www.w3.org/1999/xlink" x="0px" y="0px" width="24px" height="24px"
	 viewBox="0 0 24 24" enable-background="new 0 0 24 24" xml:space="preserve">
<g transform="translate(0 -1028.4)">
	<path fill="#2C3E50" d="M3,1030.4c-1.104,0-2,0.9-2,2v7v2v7c0,1.1,0.896,2,2,2h9h9c1.105,0,2-0.9,2-2v-7v-2v-7c0-1.1-0.895-2-2-2
		h-9H3z"/>
	<path fill="#34495E" d="M3,1030.4c-1.104,0-2,0.896-2,2v3v3v1v1v1v3v3c0,1.105,0.896,2,2,2h9h9c1.105,0,2-0.895,2-2v-3v-4v-2v-3v-3
		c0-1.104-0.895-2-2-2h-9H3z"/>
	<path fill="#ECF0F1" d="M4,1033.525v1.125l3,1.75l-3,1.75v1.125l5-2.875L4,1033.525z M9,1038.4v1h5v-1H9z"/>
</g>
</svg>
