<?xml version="1.0" encoding="utf-8"?>
<!-- Generator: Adobe Illustrator 16.0.4, SVG Export Plug-In . SVG Version: 6.00 Build 0)  -->
<!DOCTYPE svg PUBLIC "-//W3C//DTD SVG 1.1//EN" "http://www.w3.org/Graphics/SVG/1.1/DTD/svg11.dtd">
<svg version="1.1" id="svg2168" xmlns:svg="http://www.w3.org/2000/svg"
	 xmlns="http://www.w3.org/2000/svg" xmlns:xlink="http://www.w3.org/1999/xlink" x="0px" y="0px" width="744.094px"
	 height="569.922px" viewBox="0 124.921 744.094 569.922" enable-background="new 0 124.921 744.094 569.922" xml:space="preserve">
<g id="layer1" transform="translate(3.7522971,-189.16997)">
	<g id="g3171" transform="matrix(1.3035235,0,0,1.3035235,18.855435,-239.86895)">
		<path id="path43266" fill="#00BB00" d="M-3.752,438.846h71.763l98.231,292.035l96.681-292.035h72.538L200.684,823.244
			c-5.427,15.727-17.609,25.25-34.221,25.361c-16.723,0.111-29.237-9.523-34.774-25.361L-3.752,438.846"/>
		<path id="path43268" fill="#0000FF" d="M339.448,633.538V524.231c0-47.953,47.622-86.049,98.342-85.385
			c50.058,0.775,95.795,37.986,95.795,85.385v109.306h-47.398V531.319c0-25.028-22.925-43.191-48.396-43.523
			c-25.803-0.443-49.946,17.941-49.946,43.523v102.219H339.448"/>
		<path id="path43270" fill="#FF0000" d="M533.807,848.605H424.501c-47.842,0-86.05-47.62-85.275-98.453
			c0.665-49.946,37.986-95.684,85.275-95.684h109.306v47.288H431.589c-25.028,0-43.08,23.036-43.522,48.396
			c-0.444,25.915,17.94,50.057,43.522,50.057h102.218V848.605"/>
	</g>
</g>
</svg>
